<svg id="ba7430e8-1715-42cf-a4fc-255965b6ab2a" data-name="ab0dedec-0f6e-4e39-86a6-57eae76dd6c0" xmlns="http://www.w3.org/2000/svg" width="32" height="32" viewBox="0 0 32 32"><rect id="a398b6f6-efc4-4ece-aef2-f7bec64105fb" data-name="b59d8c21-4e0e-4d11-a4f1-da55f2deb8ab" width="32" height="32" fill="#053361" fill-opacity="0"/><path d="M14.45,17a2.39,2.39,0,0,0,1.07-2.07c0-1.49-1.32-2.52-3.13-2.52A3.47,3.47,0,0,0,9,14.3l1.52.75a1.78,1.78,0,0,1,1.85-1.13c.93,0,1.42.54,1.42,1.07a1.18,1.18,0,0,1-1.12,1.24H11.29v1.62H12.5c.95,0,1.37.46,1.37,1.14a1.38,1.38,0,0,1-1.49,1.26,2.13,2.13,0,0,1-2-1.2l-1.52,1.1a3.91,3.91,0,0,0,3.48,1.7c2.06,0,3.26-1.23,3.26-2.81A2.19,2.19,0,0,0,14.45,17Z" transform="translate(0 0)" fill="#053361"/><path d="M22.84,18.84V15.46A3,3,0,0,0,19.9,12.4h-.2a3,3,0,0,0-3.13,2.87v3.57a2.83,2.83,0,0,0,2.66,3,2.46,2.46,0,0,0,.47,0,2.86,2.86,0,0,0,3.13-2.56A3.23,3.23,0,0,0,22.84,18.84Zm-4.52-.08V15.53a1.32,1.32,0,0,1,1.22-1.41h.17a1.29,1.29,0,0,1,1.38,1.21.67.67,0,0,1,0,.2v3.24a1.29,1.29,0,0,1-1.24,1.33h-.16A1.26,1.26,0,0,1,18.32,19Z" transform="translate(0 0)" fill="#053361"/><path d="M28.5,2.07H25.72V0H24.14V2.07H7.86V0H6.28V2.07H3.5A2.58,2.58,0,0,0,.93,4.64v4H29.5V26.4c0,.84-.39,1.39-1,1.39H18l1.52-1.53-1.11-1.11L15,28.58,18.39,32l1.11-1.11L18,29.36H28.5a2.71,2.71,0,0,0,2.59-2.79c0-.07,0-.14,0-.21V4.25A2.51,2.51,0,0,0,28.5,2.07Zm1,5H2.5V4.64a1,1,0,0,1,1-1H6.28V5.72H7.86V3.64H24.14V5.72h1.58V3.64H28.5a1.11,1.11,0,0,1,1,.61Z" transform="translate(0 0)" fill="#053361"/><rect x="0.93" y="16.25" width="1.57" height="4.72" fill="#d20000"/><rect x="0.93" y="9.97" width="1.57" height="4.72" fill="#d20000"/><rect x="9.02" y="27.79" width="4.72" height="1.57" fill="#d20000"/><path d="M3.08,27.7l-.65,1.43a2.64,2.64,0,0,0,1.07.23h4V27.79h-4A1,1,0,0,1,3.08,27.7Z" transform="translate(0 0)" fill="#d20000"/><path d="M2.5,26.79V22.54H.93v4.25a2.51,2.51,0,0,0,.08.67l1.52-.41A1.15,1.15,0,0,1,2.5,26.79Z" transform="translate(0 0)" fill="#d20000"/></svg>