<svg xmlns="http://www.w3.org/2000/svg" viewBox="0 0 256 256" aria-hidden="true" focusable="false"><g><path d="M104.336,245.6a228.78,228.78,0,0,1-30.595-20.141l7.405-9.443A216.568,216.568,0,0,0,110.131,235.1Z" fill="#d20000"/><path d="M65.863,218.95a156.811,156.811,0,0,1-25.2-27.538l9.807-6.916A144.79,144.79,0,0,0,73.75,209.905Z" fill="#d20000"/><path d="M35.077,182.766a105.87,105.87,0,0,1-13.346-35.8l11.827-2.029A93.9,93.9,0,0,0,45.419,176.68Z" fill="#d20000"/><path d="M20.51,136.589c-.139-2.144-.209-4.329-.209-6.5V100.107h12v29.985c0,1.91.061,3.836.183,5.723Z" fill="#d20000"/><rect x="20.301" y="54.23" width="12" height="36.096" fill="#d20000"/><path d="M127.741,255.617h-2.67l-1.066-.423c-.166-.066-4.137-1.649-10.455-4.772l5.318-10.758c3.276,1.619,5.876,2.8,7.535,3.519a220.507,220.507,0,0,0,46.647-28.259c31.493-25.168,47.462-53.71,47.462-84.832V38.433c-48.54-1.3-83.748-18.024-94.106-23.544-10.357,5.52-45.565,22.243-94.1,23.544v6.276h-12v-18.2h6c56.721,0,96.631-23.4,97.027-23.641l3.08-1.837,3.082,1.84c.391.233,40.3,23.638,97.022,23.638h6V130.092c0,34.548-18.058,67.193-52.221,94.406a224.781,224.781,0,0,1-51.483,30.7Z" fill="#193560"/><path d="M126.406,211.047a20.23,20.23,0,1,1,20.23-20.23A20.253,20.253,0,0,1,126.406,211.047Zm0-28.459a8.23,8.23,0,1,0,8.23,8.229A8.238,8.238,0,0,0,126.406,182.588Z" fill="#193560"/><path d="M131.531,164.558h-10.28l-21.184-118.7h53.7ZM114.4,57.861l12.154,68.1,12.758-68.1Z" fill="#193560"/></g></svg>
